<?xml version="1.0" standalone="no"?>
<!DOCTYPE svg PUBLIC "-//W3C//DTD SVG 20010904//EN"
 "http://www.w3.org/TR/2001/REC-SVG-20010904/DTD/svg10.dtd">
<svg version="1.0" xmlns="http://www.w3.org/2000/svg"
 width="700.000000pt" height="700.000000pt" viewBox="0 0 700.000000 700.000000"
 preserveAspectRatio="xMidYMid meet">
<metadata>
Created by potrace 1.11, written by Peter Selinger 2001-2013
</metadata>
<g transform="translate(0.000000,700.000000) scale(0.100000,-0.100000)"
fill="#000000" stroke="none">
<path d="M4435 6954 c-54 -19 -104 -45 -134 -69 -60 -48 -1011 -1007 -1038
-1046 -83 -120 -90 -273 -21 -408 13 -25 92 -114 181 -204 l158 -160 -68 -68
-68 -67 -301 299 c-326 324 -348 340 -470 357 -127 17 -243 -22 -334 -113 -30
-30 -58 -55 -62 -55 -3 0 -37 91 -73 203 -37 111 -80 229 -95 262 -68 144
-189 198 -306 136 -22 -11 -80 -60 -130 -109 l-92 -90 -28 15 c-61 32 -168 9
-221 -49 -44 -46 -65 -170 -34 -201 21 -21 11 -39 -75 -125 -93 -95 -121 -138
-130 -206 -9 -60 11 -111 60 -161 55 -54 96 -73 340 -155 114 -38 211 -72 217
-75 5 -4 -41 -57 -102 -118 -120 -120 -159 -173 -183 -246 -32 -96 -22 -210
25 -304 13 -26 136 -157 319 -342 l298 -300 -68 -68 -67 -67 -160 157 c-163
161 -207 193 -303 218 -57 15 -152 12 -207 -5 -21 -7 -62 -28 -91 -46 -60 -39
-1040 -1015 -1075 -1072 -41 -65 -60 -125 -63 -199 -4 -87 15 -156 62 -228 18
-27 264 -280 546 -561 376 -374 525 -516 558 -531 146 -69 286 -59 410 30 46
33 1021 1011 1049 1052 71 105 90 218 56 329 -25 83 -59 128 -215 286 -82 84
-150 155 -150 159 0 4 29 36 66 71 l65 65 203 -205 c258 -262 276 -276 402
-319 97 -33 154 -43 254 -43 146 0 298 36 423 99 27 13 51 22 53 20 2 -2 -2
-22 -10 -45 -25 -69 -43 -204 -39 -292 6 -147 43 -289 109 -409 53 -97 164
-241 186 -241 5 0 131 121 279 270 254 253 272 269 293 257 12 -6 121 -72 242
-145 l221 -132 -12 -47 c-21 -83 16 -171 92 -216 99 -57 238 -3 276 108 53
157 -95 295 -258 241 -14 -5 -23 -1 -30 14 -5 11 -70 120 -142 241 -73 121
-133 221 -133 223 0 3 122 126 271 275 149 149 269 275 267 279 -13 31 -171
148 -265 195 -62 32 -187 75 -246 85 -56 9 -281 9 -337 -1 -37 -7 -160 -46
-222 -72 -15 -6 -15 -3 -1 42 70 224 76 374 23 561 -38 136 -56 161 -298 405
l-226 227 64 65 c35 36 68 65 71 65 4 0 78 -69 163 -154 191 -190 241 -220
373 -223 108 -3 179 20 258 83 55 44 1009 1001 1040 1043 56 77 82 229 55 318
-32 104 -46 120 -579 655 -494 495 -530 529 -595 559 -57 27 -83 33 -150 35
-51 1 -96 -3 -121 -12z"/>
<path d="M5986 2516 c-45 -17 -90 -58 -112 -101 -8 -16 -17 -68 -20 -115 -3
-47 -7 -94 -9 -105 -21 -108 -27 -137 -41 -180 -15 -46 -28 -79 -72 -175 -59
-129 -198 -286 -335 -377 -169 -113 -360 -173 -598 -188 -67 -4 -107 -22 -144
-67 -36 -42 -47 -73 -47 -129 -1 -79 48 -145 130 -179 41 -16 207 -9 327 15
110 21 285 79 376 125 68 34 206 116 219 130 3 3 28 23 55 44 80 64 193 184
261 280 35 49 64 95 64 101 0 7 6 18 14 24 16 13 103 206 110 243 2 13 11 42
19 65 9 23 18 54 20 70 3 15 10 48 16 73 20 89 29 240 18 305 -7 44 -54 108
-96 129 -42 22 -111 28 -155 12z"/>
<path d="M6716 2445 c-89 -31 -134 -114 -120 -218 15 -110 10 -334 -9 -424
-61 -286 -206 -544 -440 -782 -248 -252 -507 -403 -782 -455 -100 -18 -281
-18 -360 2 -134 33 -207 9 -269 -89 -50 -80 -8 -212 82 -258 123 -62 450 -76
669 -27 136 30 297 90 422 158 82 45 231 142 270 177 13 11 27 21 30 21 7 0
70 56 156 140 266 255 445 528 545 828 23 68 43 133 46 145 2 12 6 33 9 47 7
35 14 79 24 152 9 66 7 335 -3 378 -4 14 -9 40 -12 59 -15 88 -104 162 -194
161 -14 -1 -42 -7 -64 -15z"/>
</g>
</svg>
